<svg height="512pt" viewBox="0 0 512 512.001" width="512pt" xmlns="http://www.w3.org/2000/svg"><path d="m447.929688 80.199219c0 39.621093-32.117188 71.742187-71.738282 71.742187-39.625 0-71.742187-32.121094-71.742187-71.742187 0-39.621094 32.117187-71.742188 71.742187-71.742188 39.621094 0 71.738282 32.121094 71.738282 71.742188zm0 0" fill="#eea849"/><path d="m412.207031 142.253906c-60.839843-12.378906-89.460937-70.675781-79.128906-119.402344-17.386719 13.09375-28.628906 33.90625-28.628906 57.347657 0 39.621093 32.117187 71.742187 71.742187 71.742187 13.125 0 25.429688-3.53125 36.015625-9.6875zm0 0" fill="#e9901b"/><g fill="#f7ef87"><path d="m388.054688 87.699219h-40.195313c-4.140625 0-7.5-3.359375-7.5-7.5 0-4.144531 3.359375-7.5 7.5-7.5h40.195313c5.988281 0 10.863281-4.875 10.863281-10.863281 0-5.992188-4.875-10.863282-10.863281-10.863282h-40.195313c-4.140625 0-7.5-3.359375-7.5-7.5 0-4.144531 3.359375-7.5 7.5-7.5h40.195313c14.261718 0 25.863281 11.601563 25.863281 25.863282 0 14.261718-11.601563 25.863281-25.863281 25.863281zm0 0"/><path d="m388.054688 124.425781h-40.195313c-4.140625 0-7.5-3.355469-7.5-7.5 0-4.140625 3.359375-7.5 7.5-7.5h40.195313c5.988281 0 10.863281-4.871093 10.863281-10.863281 0-5.988281-4.875-10.863281-10.863281-10.863281-4.144532 0-7.5-3.355469-7.5-7.5 0-4.140625 3.355468-7.5 7.5-7.5 14.261718 0 25.863281 11.601562 25.863281 25.863281s-11.601563 25.863281-25.863281 25.863281zm0 0"/><path d="m361.886719 136.375c-4.144531 0-7.5-3.355469-7.5-7.5v-97.355469c0-4.140625 3.355469-7.5 7.5-7.5s7.5 3.359375 7.5 7.5v97.355469c0 4.144531-3.359375 7.5-7.5 7.5zm0 0"/><path d="m383.410156 50.972656c-4.144531 0-7.5-3.359375-7.5-7.5v-11.460937c0-4.140625 3.355469-7.5 7.5-7.5 4.140625 0 7.5 3.359375 7.5 7.5v11.460937c0 4.140625-3.359375 7.5-7.5 7.5zm0 0"/><path d="m383.410156 135.886719c-4.144531 0-7.5-3.359375-7.5-7.5v-11.460938c0-4.140625 3.355469-7.5 7.5-7.5 4.140625 0 7.5 3.359375 7.5 7.5v11.460938c0 4.140625-3.359375 7.5-7.5 7.5zm0 0"/><path d="m444.699219 240.625c28.3125-28.3125 28.3125-74.214844 0-102.523438-13.546875-13.546874-31.121094-20.613281-48.867188-21.195312-7.457031-.242188-14.160156-4.617188-17.386719-11.347656-11.679687-24.367188-36.5625-41.199219-65.390624-41.199219-14.34375 0-27.710938 4.167969-38.960938 11.359375-7.132812 4.554688-16.277344 4.039062-22.992188-1.117188-12.210937-9.375-27.488281-14.949218-44.074218-14.949218-30.300782 0-56.253906 18.589844-67.085938 44.988281-3.691406 8.984375-12.597656 14.613281-22.308594 14.730469-18.242187.230468-36.414062 7.300781-50.332031 21.222656-28.3125 28.308594-28.3125 74.210938 0 102.523438v33.976562h376.925781zm0 0"/></g><path d="m316.164062 277.09375c-60.164062-55.734375-74.519531-148.21875-34.273437-205.695312-2.691406 1.285156-5.296875 2.722656-7.796875 4.316406-7.132812 4.558594-16.273438 4.042968-22.992188-1.113282-12.210937-9.375-27.484374-14.949218-44.070312-14.949218-30.304688 0-56.257812 18.589844-67.089844 44.984375-3.6875 8.988281-12.59375 14.613281-22.308594 14.734375-18.242187.230468-36.414062 7.300781-50.332031 21.21875-28.3125 28.3125-28.3125 74.214844 0 102.523437v33.980469zm0 0" fill="#efd176"/><path d="m377.375 172.066406c-.171875 0-.34375-.007812-.519531-.019531-4.132813-.28125-7.253907-3.863281-6.96875-7.996094.320312-4.660156-1.386719-9.226562-4.679688-12.519531-3.296875-3.292969-7.871093-4.996094-12.523437-4.679688-4.132813.269532-7.710938-2.835937-7.996094-6.96875-.28125-4.132812 2.835938-7.710937 6.96875-7.996093 9-.609375 17.792969 2.675781 24.15625 9.039062 6.359375 6.355469 9.652344 15.160157 9.035156 24.152344-.269531 3.957031-3.5625 6.988281-7.472656 6.988281zm0 0" fill="#efd176"/><path d="m292.652344 129.644531c-2.09375 0-4.175782-.871093-5.660156-2.570312-3.070313-3.523438-7.5-5.546875-12.160157-5.546875-4.660156 0-9.089843 2.023437-12.160156 5.546875-2.722656 3.121093-7.460937 3.445312-10.582031.726562-3.125-2.722656-3.449219-7.460937-.726563-10.582031 5.917969-6.792969 14.472657-10.691406 23.46875-10.691406 8.996094 0 17.550781 3.898437 23.46875 10.691406 2.722657 3.121094 2.398438 7.859375-.726562 10.582031-1.417969 1.234375-3.175781 1.84375-4.921875 1.84375zm0 0" fill="#efd176"/><path d="m236.210938 85.023438c0 42.8125-34.707032 77.519531-77.523438 77.519531-42.8125 0-77.519531-34.707031-77.519531-77.519531 0-42.816407 34.707031-77.523438 77.519531-77.523438 42.816406 0 77.523438 34.707031 77.523438 77.523438zm0 0" fill="#eea849"/><path d="m197.605469 152.078125c-65.738281-13.375-96.664063-76.371094-85.5-129.023437-18.789063 14.148437-30.9375 36.636718-30.9375 61.96875 0 42.8125 34.707031 77.519531 77.519531 77.519531 14.1875.003906 27.480469-3.8125 38.917969-10.464844zm0 0" fill="#e9901b"/><path d="m137.042969 114.167969c-1.917969 0-3.839844-.730469-5.304688-2.195313-2.929687-2.929687-2.929687-7.679687 0-10.609375l30.714844-30.710937c2.332031-2.332032 3.613281-5.429688 3.613281-8.726563s-1.28125-6.398437-3.613281-8.730469c-2.332031-2.332031-5.433594-3.613281-8.730469-3.613281s-6.394531 1.28125-8.726562 3.613281l-30.714844 30.714844c-2.929688 2.925782-7.675781 2.925782-10.605469 0-2.929687-2.929687-2.929687-7.679687 0-10.609375l30.710938-30.710937c5.164062-5.164063 12.03125-8.007813 19.335937-8.007813 7.304688 0 14.171875 2.84375 19.335938 8.007813 5.164062 5.164062 8.007812 12.03125 8.007812 19.335937 0 7.304688-2.84375 14.171875-8.007812 19.335938l-30.710938 30.710937c-1.464844 1.464844-3.386718 2.195313-5.304687 2.195313zm0 0" fill="#f7ef87"/><path d="m165.105469 142.230469c-1.917969 0-3.839844-.734375-5.304688-2.195313-2.925781-2.929687-2.925781-7.679687 0-10.609375l30.714844-30.710937c2.332031-2.332032 3.613281-5.429688 3.613281-8.726563s-1.28125-6.398437-3.613281-8.726562c-2.332031-2.332031-5.433594-3.617188-8.730469-3.617188s-6.394531 1.285157-8.726562 3.617188c-2.929688 2.925781-7.679688 2.925781-10.609375 0-2.925781-2.933594-2.925781-7.679688 0-10.609375 10.664062-10.660156 28.011719-10.660156 38.671875 0 5.164062 5.164062 8.007812 12.03125 8.007812 19.335937 0 7.300781-2.84375 14.167969-8.007812 19.332031l-30.710938 30.714844c-1.464844 1.460938-3.382812 2.195313-5.304687 2.195313zm0 0" fill="#f7ef87"/><path d="m184.953125 140.644531c-1.917969 0-3.839844-.734375-5.304687-2.195312l-74.386719-74.386719c-2.929688-2.929688-2.929688-7.679688 0-10.609375 2.929687-2.925781 7.679687-2.925781 10.609375 0l74.386718 74.386719c2.925782 2.929687 2.925782 7.679687 0 10.609375-1.464843 1.460937-3.386718 2.195312-5.304687 2.195312zm0 0" fill="#f7ef87"/><path d="m136.140625 58.941406c-1.917969 0-3.835937-.730468-5.300781-2.195312l-8.757813-8.753906c-2.925781-2.929688-2.925781-7.679688 0-10.609376 2.929688-2.925781 7.679688-2.925781 10.609375 0l8.753906 8.757813c2.929688 2.929687 2.929688 7.675781 0 10.605469-1.464843 1.464844-3.382812 2.195312-5.304687 2.195312zm0 0" fill="#f7ef87"/><path d="m201.023438 123.824219c-1.917969 0-3.839844-.734375-5.304688-2.195313l-8.753906-8.757812c-2.929688-2.929688-2.929688-7.675782 0-10.605469 2.929687-2.925781 7.679687-2.925781 10.609375 0l8.753906 8.753906c2.925781 2.929688 2.925781 7.679688 0 10.609375-1.464844 1.460938-3.386719 2.195313-5.304687 2.195313zm0 0" fill="#f7ef87"/><path d="m479.683594 269.304688h-447.367188c-13.707031 0-24.816406-11.109376-24.816406-24.816407v-27.472656c0-13.703125 11.109375-24.8125 24.816406-24.8125h447.367188c13.707031 0 24.816406 11.109375 24.816406 24.8125v27.472656c0 13.707031-11.109375 24.816407-24.816406 24.816407zm0 0" fill="#6e7ca8"/><path d="m469.761719 269.304688h-427.523438l30.953125 144.636718c5.34375 24.957032 27.394532 42.789063 52.914063 42.789063h259.789062c25.519531 0 47.570313-17.832031 52.914063-42.789063zm0 0" fill="#e1b89a"/><path d="m469.761719 269.304688h-427.523438l30.953125 144.636718c5.34375 24.957032 27.394532 42.789063 52.914063 42.789063h259.789062c25.519531 0 47.570313-17.832031 52.914063-42.789063zm0 0" fill="#e1b89a"/><path d="m469.761719 269.304688h-427.523438l30.953125 144.636718c5.34375 24.957032 27.394532 42.789063 52.914063 42.789063h259.789062c25.519531 0 47.570313-17.832031 52.914063-42.789063zm0 0" fill="#e1b89a"/><path d="m235.078125 269.304688h-192.839844l30.953125 144.636718c5.34375 24.957032 27.394532 42.789063 52.914063 42.789063h156.65625c-28.671875-37.84375-55.933594-111.71875-47.683594-187.425781zm0 0" fill="#d2996f"/><path d="m65.597656 378.464844 7.59375 35.480468c5.34375 24.953126 27.394532 42.785157 52.914063 42.785157h259.789062c25.519531 0 47.570313-17.832031 52.914063-42.785157l7.59375-35.480468zm0 0" fill="#6e7ca8"/><path d="m245.433594 378.464844h-179.835938l7.59375 35.480468c5.34375 24.953126 27.394532 42.785157 52.914063 42.785157h156.65625c-14.152344-18.679688-27.960938-46.140625-37.328125-78.265625zm0 0" fill="#54669e"/><path d="m194.625 456.730469c0 26.382812-21.386719 47.769531-47.769531 47.769531-26.382813 0-47.769531-21.386719-47.769531-47.769531 0-26.382813 21.386718-47.769531 47.769531-47.769531 26.382812 0 47.769531 21.386718 47.769531 47.769531zm0 0" fill="#4e5660"/><path d="m165.96875 456.730469c0 10.554687-8.554688 19.113281-19.113281 19.113281-10.554688 0-19.113281-8.558594-19.113281-19.113281 0-10.554688 8.558593-19.113281 19.113281-19.113281 10.558593 0 19.113281 8.558593 19.113281 19.113281zm0 0" fill="#f7ef87"/><path d="m412.914062 456.730469c0 26.382812-21.386718 47.769531-47.769531 47.769531-26.382812 0-47.769531-21.386719-47.769531-47.769531 0-26.382813 21.386719-47.769531 47.769531-47.769531 26.382813 0 47.769531 21.386718 47.769531 47.769531zm0 0" fill="#4e5660"/><path d="m384.257812 456.730469c0 10.554687-8.558593 19.113281-19.113281 19.113281-10.554687 0-19.113281-8.558594-19.113281-19.113281 0-10.554688 8.558594-19.113281 19.113281-19.113281 10.554688 0 19.113281 8.558593 19.113281 19.113281zm0 0" fill="#f7ef87"/><path d="m284.671875 429.480469c-1.917969 0-3.839844-.734375-5.304687-2.199219-2.929688-2.929688-2.929688-7.675781 0-10.605469l14.609374-14.609375c2.929688-2.925781 7.675782-2.925781 10.605469 0 2.929688 2.929688 2.929688 7.679688 0 10.609375l-14.609375 14.605469c-1.460937 1.464844-3.382812 2.199219-5.300781 2.199219zm0 0" fill="#54669e"/><path d="m145.53125 343.503906c-1.921875 0-3.839844-.730468-5.304688-2.195312-2.929687-2.929688-2.929687-7.679688 0-10.605469l24.632813-24.632813c2.929687-2.929687 7.679687-2.925781 10.605469 0 2.929687 2.929688 2.929687 7.679688 0 10.609376l-24.632813 24.628906c-1.460937 1.464844-3.382812 2.195312-5.300781 2.195312zm0 0" fill="#e1b89a"/><path d="m361.910156 322.503906c-1.921875 0-3.839844-.734375-5.304687-2.195312-2.929688-2.929688-2.929688-7.679688 0-10.609375l14.492187-14.492188c2.929688-2.929687 7.679688-2.929687 10.605469 0 2.929687 2.929688 2.929687 7.679688 0 10.605469l-14.492187 14.496094c-1.464844 1.460937-3.382813 2.195312-5.300782 2.195312zm0 0" fill="#d2996f"/><path d="m479.683594 184.699219h-6.414063c-1.152343-19.457031-9.398437-38.035157-23.265625-51.902344-2.730468-2.730469-5.632812-5.242187-8.683594-7.523437 9.136719-13.191407 14.109376-28.910157 14.109376-45.074219 0-43.695313-35.546876-79.242188-79.238282-79.242188-18.160156 0-35.898437 6.300781-49.960937 17.738281-12.457031 10.140626-21.570313 23.917969-26.0625 39.210938-10.683594 1.738281-20.917969 5.617188-30.109375 11.488281-4.449219 2.84375-10.101563 2.550781-14.390625-.742187-4.957031-3.804688-10.332031-7-16.007813-9.542969-10.984375-34.246094-43.125-59.109375-80.96875-59.109375-27.316406 0-53.152344 13.261719-69.105468 35.476562-2.414063 3.363282-1.644532 8.050782 1.71875 10.464844 3.363281 2.414063 8.046874 1.648438 10.46875-1.714844 13.140624-18.300781 34.417968-29.226562 56.917968-29.226562 38.609375 0 70.019532 31.410156 70.019532 70.023438 0 38.609374-31.410157 70.019531-70.019532 70.019531-38.613281 0-70.023437-31.410157-70.023437-70.019531 0-4.09375.355469-8.195313 1.054687-12.191407.714844-4.078125-2.011718-7.96875-6.09375-8.683593-4.085937-.710938-7.964844 2.015624-8.683594 6.09375-.847656 4.851562-1.277343 9.820312-1.277343 14.78125 0 12.8125 2.863281 24.960937 7.960937 35.867187-7.226562 3.75-13.804687 8.570313-19.632812 14.394531-13.414063 13.417969-21.460938 30.742188-23.097656 49.414063h-6.582032c-17.820312 0-32.316406 14.5-32.316406 32.316406v27.472656c0 17.820313 14.496094 32.316407 32.316406 32.316407h3.855469l22.074219 103.140624c.003906.023438.011718.046876.015625.070313l7.597656 35.496094c3.34375 15.636719 12.652344 29.292969 25.8125 38.175781-.054687 1.007812-.085937 2.023438-.085937 3.042969 0 30.476562 24.792968 55.269531 55.269531 55.269531 27.929687 0 51.074219-20.828125 54.746093-47.769531h108.796876c3.671874 26.941406 26.816406 47.769531 54.746093 47.769531 30.476563 0 55.269531-24.792969 55.269531-55.269531 0-1.023438-.03125-2.039063-.085937-3.050781 6.378906-4.316407 11.976563-9.8125 16.335937-16.148438 2.347657-3.410156 1.488282-8.082031-1.925781-10.429688-3.410156-2.347656-8.082031-1.484374-10.429687 1.925782-2.109375 3.070312-4.609375 5.875-7.394532 8.359375-7.859374-20.960938-28.097656-35.925781-51.769531-35.925781-27.929687 0-51.074219 20.832031-54.746093 47.769531h-108.796876c-3.671874-26.9375-26.816406-47.769531-54.746093-47.769531-23.675781 0-43.917969 14.96875-51.773438 35.9375-7.320312-6.53125-12.46875-15.273438-14.554687-25.023438l-5.652344-26.410156h362.25l-2.800781 13.09375c-.867188 4.050781 1.714843 8.039062 5.765625 8.90625.527344.109375 1.054687.167968 1.574218.167968 3.460938 0 6.574219-2.414062 7.328126-5.933593l4.746093-22.183594c.003907-.023437.011719-.046875.015625-.070313l22.074219-103.140624h3.855469c17.820312 0 32.316406-14.496094 32.316406-32.316407v-27.472656c0-17.816406-14.496094-32.316406-32.316406-32.316406zm-114.539063 231.761719c20.128907 0 36.851563 14.84375 39.804688 34.15625.003906.019531.003906.035156.007812.050781.300781 1.976562.457031 4.003906.457031 6.0625 0 22.203125-18.066406 40.269531-40.269531 40.269531s-40.269531-18.066406-40.269531-40.269531 18.066406-40.269531 40.269531-40.269531zm-258.101562 34.210937c.003906-.019531.007812-.035156.007812-.054687 2.953125-19.3125 19.679688-34.152344 39.804688-34.152344 22.207031 0 40.269531 18.0625 40.269531 40.269531 0 22.203125-18.0625 40.269531-40.269531 40.269531-22.203125 0-40.269531-18.066406-40.269531-40.269531 0-2.0625.160156-4.085937.457031-6.0625zm269.148437-434.714844c35.421875 0 64.238282 28.816407 64.238282 64.242188 0 13.390625-4.199219 26.40625-11.921876 37.242187-10.019531-4.886718-21.035156-7.65625-32.429687-8.03125-4.679687-.152344-8.847656-2.871094-10.867187-7.09375-12.761719-26.625-39.550782-44.164062-68.878907-45.386718 9.46875-24.222657 33.257813-40.972657 59.859375-40.972657zm-303.585937 129.9375c4.898437-4.898437 10.460937-8.914062 16.570312-12.003906 15.402344 21.84375 40.8125 36.15625 69.511719 36.15625 46.882812 0 85.023438-38.140625 85.023438-85.023437 0-2.257813-.117188-4.492188-.289063-6.707032 1.054687.714844 2.097656 1.457032 3.113281 2.238282 9.214844 7.074218 21.914063 7.671874 31.597656 1.484374 8.640626-5.519531 18.417969-8.875 28.585938-9.863281.046875-.003906.09375-.011719.144531-.015625 2.050781-.195312 4.113281-.300781 6.191407-.300781 24.859374 0 47.871093 14.5 58.628906 36.941406 4.449218 9.285157 13.605468 15.265625 23.902344 15.605469 16.542968.539062 32.101562 7.289062 43.8125 19 11.054687 11.054688 17.714843 25.804688 18.839843 41.296875h-404.261719c1.59375-14.660156 8.050782-28.230469 18.628907-38.808594zm367.730469 225.070313h-368.671876l-20.152343-94.160156h408.976562zm56.664062-126.476563c0 9.546875-7.765625 17.316407-17.316406 17.316407h-9.832032c-.019531 0-.042968 0-.0625 0h-427.570312c-.023438 0-.046875-.003907-.070312 0h-9.832032c-9.550781 0-17.316406-7.769532-17.316406-17.316407v-27.472656c0-9.546875 7.769531-17.316406 17.316406-17.316406h447.367188c9.550781 0 17.316406 7.769531 17.316406 17.316406zm0 0"/></svg>