<svg id="Layer_1" enable-background="new 0 0 128 128" height="512" viewBox="0 0 128 128" width="512" xmlns="http://www.w3.org/2000/svg"><g><path d="m117.838 34.266h-8v-8c0-2.757-2.243-5-5-5h-90.676c-2.757 0-5 2.243-5 5v66.468c0 2.757 2.243 5 5 5h8v8c0 2.757 2.243 5 5 5h90.676c2.757 0 5-2.243 5-5v-66.468c0-2.756-2.243-5-5-5z" fill="#e6e7e8"/><g><g><path d="m104.837 48.047v40.687c0 2.209-1.791 4-4 4h-81.675v9c0 2.209 1.791 4 4 4h90.675c2.209 0 4-1.791 4-4v-53.687z" fill="#d4fbff"/><path d="m113.837 31.266h-9v3.781 13h13v-12.781c0-2.209-1.791-4-4-4z" fill="#0089ef"/></g><g><path d="m104.837 35.047h-98.675v53.687c0 2.209 1.791 4 4 4h90.675c2.209 0 4-1.791 4-4z" fill="#d4fbff"/><path d="m48.881 79.416c-.039 0-.077-.001-.116-.002-1.217-.033-2.36-.588-3.139-1.523l-10.593-12.711c-1.498-1.798-1.255-4.47.543-5.968 1.797-1.499 4.469-1.256 5.968.542l7.514 9.018 19.604-21.057c1.593-1.712 4.275-1.81 5.989-.214 1.712 1.595 1.808 4.275.214 5.989l-22.882 24.576c-.803.863-1.927 1.35-3.102 1.35z" fill="#0089ef"/><path d="m100.837 89.734h-90.675c-2.209 0-4-1.791-4-4v3c0 2.209 1.791 4 4 4h90.675c2.209 0 4-1.791 4-4v-3c0 2.209-1.791 4-4 4z" fill="#fff"/><path d="m6.162 22.266v12.781h98.675v-12.781c0-2.209-1.791-4-4-4h-90.675c-2.209 0-4 1.791-4 4z" fill="#0089ef"/><g fill="#3a2c60"><path d="m117.837 67.469c-.553 0-1 .447-1 1v9.666c0 .553.447 1 1 1s1-.447 1-1v-9.666c0-.553-.447-1-1-1z"/><path d="m113.837 30.266h-8v-8c0-2.757-2.243-5-5-5h-90.675c-2.757 0-5 2.243-5 5v66.468c0 2.757 2.243 5 5 5h8v8c0 2.757 2.243 5 5 5h90.675c2.757 0 5-2.243 5-5v-19.099c0-.553-.447-1-1-1s-1 .447-1 1v19.099c0 1.654-1.346 3-3 3h-90.675c-1.654 0-3-1.346-3-3v-8h80.675c2.757 0 5-2.243 5-5v-39.687h11v14.844c0 .553.447 1 1 1s1-.447 1-1v-15.844-12.781c0-2.757-2.243-5-5-5zm-106.675-8c0-1.654 1.346-3 3-3h90.675c1.654 0 3 1.346 3 3v11.781h-96.675zm93.675 69.468h-90.675c-1.654 0-3-1.346-3-3v-52.687h96.675v52.687c0 1.654-1.346 3-3 3zm5-59.468h8c1.654 0 3 1.346 3 3v11.781h-11z"/><path d="m71.575 45.368c-1.398.05-2.692.642-3.645 1.665l-18.83 20.227-6.788-8.146c-.896-1.074-2.156-1.736-3.55-1.862-1.399-.126-2.754.297-3.827 1.192-2.218 1.849-2.52 5.158-.671 7.377l10.595 12.712c.964 1.156 2.378 1.842 3.881 1.882l.142.002c1.449 0 2.847-.608 3.833-1.668l22.882-24.576c1.966-2.113 1.848-5.435-.264-7.402-1.026-.956-2.363-1.449-3.758-1.403zm2.557 7.441-22.882 24.576c-.609.655-1.474 1.031-2.369 1.031l-.09-.002c-.928-.024-1.801-.448-2.396-1.163l-10.594-12.712c-1.143-1.371-.957-3.416.415-4.56.587-.489 1.312-.751 2.066-.751.099 0 .198.005.299.014.861.078 1.64.487 2.193 1.152l7.515 9.018c.185.22.454.352.741.359.281.002.563-.109.759-.318l19.605-21.057c.588-.633 1.389-.998 2.252-1.029.887-.046 1.689.277 2.322.865 1.307 1.217 1.379 3.27.164 4.577z"/></g><g><circle cx="36.472" cy="26.675" fill="#fff" r="2.727"/><circle cx="26.565" cy="26.675" fill="#d4fbff" r="2.727"/><circle cx="16.658" cy="26.675" fill="#fa759e" r="2.727"/></g></g></g></g></svg>