<?xml version="1.0" encoding="iso-8859-1"?>
<!-- Generator: Adobe Illustrator 19.0.0, SVG Export Plug-In . SVG Version: 6.00 Build 0)  -->
<svg version="1.1" id="Capa_1" xmlns="http://www.w3.org/2000/svg" xmlns:xlink="http://www.w3.org/1999/xlink" x="0px" y="0px"
	 viewBox="0 0 472 472" style="enable-background:new 0 0 472 472;" xml:space="preserve">
<path style="fill:#3E8CC7;" d="M28,432V184c0-17.673,14.327-32,32-32h352c17.673,0,32,14.327,32,32v248"/>
<path style="fill:#87CED9;" d="M60,448V184h352v264"/>
<path style="fill:#78C3CF;" d="M96,448h316V184h-52L96,448z"/>
<path style="fill:#4398D1;" d="M452,472H20c-8.837,0-16-7.163-16-16v-24h200l3.312,3.312c3,3.001,7.069,4.687,11.312,4.688h34.752
	c4.243-0.001,8.312-1.687,11.312-4.688L268,432h200v24C468,464.837,460.837,472,452,472z"/>
<circle style="fill:#FDB62F;" cx="236" cy="80" r="72"/>
<path style="fill:#F46B27;" d="M268,64c0-13.255-10.745-24-24-24v-8h-16v8h-16c-4.418,0-8,3.582-8,8v64c0,4.418,3.582,8,8,8h16v8h16
	v-8c13.255-0.009,23.993-10.762,23.983-24.017c-0.004-5.898-2.18-11.588-6.111-15.983C265.822,75.607,268.005,69.907,268,64z
	 M244,104h-24V88h24c4.418,0,8,3.582,8,8S248.418,104,244,104z M244,72h-24V56h24c4.418,0,8,3.582,8,8S248.418,72,244,72z"/>
<g>
	<path style="fill:#FDB62F;" d="M100,80c0-22.091,17.909-40,40-40c-22.091,0-40-17.909-40-40"/>
	<path style="fill:#FDB62F;" d="M100,0c0,22.091-17.909,40-40,40c22.091,0,40,17.909,40,40"/>
</g>
<g>
	<path style="fill:#FFFFFF;" d="M217.656,261.656c1.5-1.5,2.344-3.534,2.344-5.656v-72h-16v68.688l-21.656,21.656
		c-1.5,1.5-2.344,3.534-2.344,5.656v33.472c-12.497,4.418-19.046,18.131-14.627,30.627c4.418,12.497,18.131,19.046,30.627,14.627
		c12.497-4.418,19.046-18.131,14.627-30.627c-2.416-6.835-7.793-12.211-14.627-14.627v-30.16L217.656,261.656z M188,344
		c-4.418,0-8-3.582-8-8s3.582-8,8-8s8,3.582,8,8S192.418,344,188,344z"/>
	<path style="fill:#FFFFFF;" d="M252,265.472V184h-16v81.472c-12.497,4.418-19.046,18.131-14.627,30.627
		c4.418,12.497,18.131,19.046,30.627,14.627c12.497-4.418,19.046-18.131,14.627-30.627C264.211,273.265,258.835,267.888,252,265.472
		z M244,296c-4.418,0-8-3.582-8-8s3.582-8,8-8s8,3.582,8,8S248.418,296,244,296z"/>
	<path style="fill:#FFFFFF;" d="M324,273.472V248c0-2.122-0.844-4.156-2.344-5.656L292,212.688V184h-16v32
		c0,2.122,0.844,4.156,2.344,5.656L308,251.312v22.16c-12.497,4.418-19.046,18.131-14.627,30.627
		c4.418,12.497,18.131,19.046,30.627,14.627c12.497-4.418,19.046-18.131,14.627-30.627C336.211,281.265,330.835,275.888,324,273.472
		z M316,304c-4.418,0-8-3.582-8-8s3.582-8,8-8s8,3.582,8,8S320.418,304,316,304z"/>
	<path style="fill:#FFFFFF;" d="M324,184h16v32h-16V184z"/>
	<path style="fill:#FFFFFF;" d="M148,249.472v-29.6L193.544,184h-25.856L135,209.752c-1.897,1.519-3.001,3.818-3,6.248v33.472
		c-12.497,4.418-19.046,18.131-14.627,30.627c4.418,12.497,18.131,19.046,30.627,14.627c12.497-4.418,19.046-18.131,14.627-30.627
		C160.211,257.265,154.835,251.888,148,249.472z M140,280c-4.418,0-8-3.582-8-8s3.582-8,8-8s8,3.582,8,8S144.418,280,140,280z"/>
</g>
<g>
</g>
<g>
</g>
<g>
</g>
<g>
</g>
<g>
</g>
<g>
</g>
<g>
</g>
<g>
</g>
<g>
</g>
<g>
</g>
<g>
</g>
<g>
</g>
<g>
</g>
<g>
</g>
<g>
</g>
</svg>
