<svg height="480pt" viewBox="0 0 480 480" width="480pt" xmlns="http://www.w3.org/2000/svg"><path d="m176 256h-120c-30.929688 0-56-25.070312-56-56s25.070312-56 56-56c.183594 0 .367188.023438.558594.03125-.335938-2.640625-.558594-5.304688-.558594-8.03125 0-35.34375 28.65625-64 64-64 12.664062 0 24.433594 3.726562 34.359375 10.0625 10.082031-46.894531 51.738281-82.0625 101.640625-82.0625 57.441406 0 104 46.558594 104 104 0 .96875-.121094 1.910156-.144531 2.878906 11.808593-6.878906 25.496093-10.878906 40.144531-10.878906 44.183594 0 80 35.816406 80 80s-35.816406 80-80 80h-96" fill="#eebc5a"/><path d="m2.351562 216c6.886719 23.128906 28.289063 40 53.648438 40h344c38.703125 0 70.976562-27.488281 78.390625-64-7.414063-36.511719-39.6875-64-78.390625-64-14.648438 0-28.335938 4-40.144531 10.878906.023437-.96875.144531-1.910156.144531-2.878906 0-57.441406-46.558594-104-104-104-49.902344 0-91.558594 35.167969-101.640625 82.0625-9.925781-6.335938-21.695313-10.0625-34.359375-10.0625-35.34375 0-64 28.65625-64 64 0 2.726562.222656 5.390625.558594 8.03125-.191406-.007812-.375-.03125-.558594-.03125-25.359375 0-46.761719 16.871094-53.648438 40zm0 0" fill="#f8cf6a"/><g fill="#cdd1d8"><path d="m168.078125 294.824219 24.027344-159.996094 15.824219 2.375-24.027344 159.996094zm0 0"/><path d="m272.070312 137.191406 15.824219-2.371094 23.992188 159.996094-15.820313 2.371094zm0 0"/><path d="m232 64h16v40h-16zm0 0"/><path d="m232 176h16v32h-16zm0 0"/><path d="m168 128h32v16h-32zm0 0"/><path d="m280 128h32v16h-32zm0 0"/><path d="m186.34375 93.660156 11.3125-11.3125 24 24-11.3125 11.3125zm0 0"/><path d="m258.34375 106.34375 24-24.003906 11.3125 11.3125-24 24.003906zm0 0"/></g><path d="m288 136c0 26.507812-21.492188 48-48 48s-48-21.492188-48-48 21.492188-48 48-48 48 21.492188 48 48zm0 0" fill="#abb2bc"/><path d="m264 136c0 13.253906-10.746094 24-24 24s-24-10.746094-24-24 10.746094-24 24-24 24 10.746094 24 24zm0 0" fill="#cdd1d8"/><path d="m334.558594 352c-2.390625-14.222656-7.949219-27.34375-15.855469-38.703125l9.296875-9.296875-24-24-9.296875 9.296875c-11.359375-7.90625-24.480469-13.464844-38.703125-15.855469v-17.441406h-32v17.441406c-14.230469 2.390625-27.40625 7.855469-38.777344 15.78125l-9.222656-9.222656-24 24 9.222656 9.222656c-7.925781 11.378906-13.390625 24.546875-15.78125 38.777344h-17.441406v32h17.441406c2.390625 14.222656 7.949219 27.34375 15.855469 38.703125l-9.296875 9.296875 24 24 9.296875-9.296875c11.359375 7.90625 24.480469 13.464844 38.703125 15.855469v17.441406h32v-17.441406c14.230469-2.390625 27.40625-7.855469 38.777344-15.78125l9.222656 9.222656 24-24-9.222656-9.222656c7.925781-11.378906 13.390625-24.546875 15.78125-38.777344h17.441406v-32zm0 0" fill="#abb2bc"/><path d="m312 368c0 39.765625-32.234375 72-72 72s-72-32.234375-72-72 32.234375-72 72-72 72 32.234375 72 72zm0 0" fill="#cdd1d8"/><path d="m268.945312 368c6.71875-5.871094 11.054688-14.390625 11.054688-24 0-14.871094-10.238281-27.289062-24-30.863281v-17.136719h-16v16h-8v-16h-16v16h-8c-4.414062 0-8 3.574219-8 8v96c0 4.425781 3.585938 8 8 8h8v16h16v-16h8v16h16v-17.136719c13.761719-3.574219 24-15.992187 24-30.863281 0-9.609375-4.335938-18.128906-11.054688-24zm-52.945312-40h32c8.824219 0 16 7.175781 16 16s-7.175781 16-16 16h-32zm32 80h-32v-32h32c8.824219 0 16 7.175781 16 16s-7.175781 16-16 16zm0 0" fill="#abb2bc"/><path d="m160 360h24v16h-24zm0 0" fill="#abb2bc"/><path d="m296 360h24v16h-24zm0 0" fill="#abb2bc"/></svg>