<svg id="Capa_1" enable-background="new 0 0 512 512" height="512" viewBox="0 0 512 512" width="512" xmlns="http://www.w3.org/2000/svg"><g><g><path d="m502.788 510.7c6.289 0 10.709-6.159 8.739-12.131-31.076-94.203-119.794-162.2-224.408-162.2h-62.237c-104.614 0-193.332 67.996-224.408 162.2-1.97 5.972 2.45 12.131 8.739 12.131z" fill="#786e79"/></g><g><path d="m511.526 498.569c-31.076-94.203-119.794-162.2-224.408-162.2h-62.237c-2.042 0-4.076.035-6.105.087 101.948 2.587 187.834 69.748 218.303 162.113 1.97 5.972-2.45 12.131-8.739 12.131h74.447c6.289 0 10.709-6.159 8.739-12.131z" fill="#453e43"/></g><g><path d="m291.743 372.708h-71.323c-17.211 0-31.163-13.952-31.163-31.163v-66.861h133.487v67.024c-.001 17.121-13.88 31-31.001 31z" fill="#ffcbbe"/></g><g><path d="m294.792 274.684v66.139c0 17.609-14.275 31.885-31.885 31.885h28.836c17.121 0 31-13.879 31-31v-67.024z" fill="#fdad9d"/></g><g><g><path d="m297.111 493.187.387-.895c3.569-8.252-.228-17.835-8.48-21.404l-240.271-103.911-13.311 30.778 240.271 103.912c8.252 3.568 17.835-.228 21.404-8.48z" fill="#fba615"/></g><g><path d="m41.448 383.854 232.269 100.452c8.282 3.582 17.863-.042 21.748-8.094 3.372 4.638 4.279 10.884 1.839 16.528-3.676 8.499-13.545 12.409-22.044 8.734l-239.824-103.72z" fill="#f88604"/></g><g><path d="m58.586 389.499c-16.658 38.517-21.222 79.218-15.378 117.864.321 2.121-2.437 3.21-3.654 1.444-26.081-37.857-32.674-87.892-13.081-133.196s60.568-74.767 106.014-81.69c2.12-.323 3.215 2.433 1.45 3.651-32.162 22.209-58.694 53.41-75.351 91.927z" fill="#b1abb5"/></g><g><path d="m132.487 293.921c-16.338 2.489-32.091 7.906-46.488 15.91-18.194 24.156-32.089 52.18-40.245 83.239-9.385 35.739-10.173 71.71-3.66 105.731-3.987-36.062 1.059-73.618 16.492-109.302 16.658-38.517 43.189-69.718 75.351-91.926 1.765-1.22.67-3.975-1.45-3.652z" fill="#786e79"/></g><g><path d="m69.737 416.266 15.99-36.974c1.535-3.548-.098-7.669-3.646-9.204l-47.254-20.436c-3.548-1.535-7.669.098-9.204 3.646l-15.99 36.974c-1.535 3.548.098 7.669 3.646 9.204l47.254 20.437c3.548 1.534 7.669-.099 9.204-3.647z" fill="#786e79"/></g><g><path d="m13.306 381.777 39.022 16.876c3.403 1.472 7.355-.094 8.827-3.497l12.43-28.741 8.495 3.674c3.548 1.535 5.181 5.655 3.646 9.204l-15.99 36.974c-1.535 3.548-5.655 5.181-9.204 3.646l-47.254-20.437c-3.548-1.535-5.181-5.655-3.646-9.204z" fill="#453e43"/></g></g><g><g><path d="m357.278 177.069c-.638-.047-1.256-.059-1.865-.056v-33.009c0-18.156-14.719-32.875-32.875-32.875h-131.703c-18.156 0-32.875 14.718-32.875 32.875v33.059c-1.037-.072-2.113-.076-3.239.006-16.1 1.186-28.551 10.299-27.145 29.4 1.377 18.699 15.525 40.023 31.224 39.802 6.325 48.424 47.737 85.816 97.886 85.816 50.162 0 91.582-37.411 97.891-85.853 15.14-.994 28.509-21.615 29.845-39.765 1.408-19.101-11.044-28.214-27.144-29.4z" fill="#ffcbbe"/></g><g><circle cx="214.79" cy="199.462" fill="#8a3e25" r="13.259"/></g><g><circle cx="298.567" cy="199.462" fill="#8a3e25" r="13.259"/></g><g><path d="m357.278 177.069c-.638-.047-1.256-.059-1.865-.056v-33.009c0-18.156-14.719-32.875-32.875-32.875h-4.78c1.161 3.363 1.8 6.97 1.8 10.728v89.358c0 54.525-44.201 98.726-98.726 98.726-11.467 0-22.474-1.962-32.713-5.556 17.76 17.149 41.93 27.703 68.567 27.703 50.162 0 91.582-37.411 97.891-85.853 15.14-.994 28.509-21.615 29.845-39.765 1.408-19.102-11.044-28.215-27.144-29.401z" fill="#fdad9d"/></g><g><path d="m278.043 268.096h-44.891c-4.238 0-7.674-3.436-7.674-7.674s3.436-7.674 7.674-7.674h44.891c4.238 0 7.674 3.436 7.674 7.674s-3.436 7.674-7.674 7.674z" fill="#fd7b65"/></g></g><g><path d="m274.197 1.3h-36.395c-50.258 0-91 40.742-91 91v41.16h218.395v-41.16c0-50.258-40.742-91-91-91z" fill="#fba615"/></g><path d="m312.958 9.951c11.77 15.336 18.77 34.524 18.77 55.349 0 14.487-11.744 26.231-26.231 26.231h-158.685c-.002.257-.01.512-.01.769v41.16h218.395v-41.16c0-36.394-21.367-67.792-52.239-82.349z" fill="#f88604"/><g><circle cx="256" cy="79.434" fill="#fdf3c4" r="41.646"/></g><g><path d="m276.342 43.096c3.376 6.017 5.309 12.952 5.309 20.342 0 23.001-18.646 41.646-41.646 41.646-7.39 0-14.325-1.933-20.342-5.309 7.131 12.71 20.727 21.304 36.337 21.304 23.001 0 41.646-18.646 41.646-41.646 0-15.61-8.594-29.206-21.304-36.337z" fill="#fcdd2e"/></g><g><path d="m134.853 130.707c0 3.057 1.49 5.93 4.011 7.659 28.959 19.865 70.711 32.339 117.136 32.339s88.177-12.474 117.136-32.339c2.521-1.729 4.011-4.602 4.011-7.659 0-5.136-4.164-9.3-9.3-9.3h-223.695c-5.136 0-9.299 4.164-9.299 9.3z" fill="#fba615"/></g><g><path d="m367.848 121.407h-24.438c-32.183 21.583-78.087 35.09-129.057 35.09-18.022 0-35.408-1.693-51.781-4.83 26.187 11.967 58.482 19.037 93.428 19.037 46.426 0 88.177-12.474 117.137-32.339 2.521-1.729 4.011-4.602 4.011-7.659-.001-5.135-4.164-9.299-9.3-9.299z" fill="#f88604"/></g></g></svg>